<?xml version="1.0" standalone="no"?>
<!DOCTYPE svg PUBLIC "-//W3C//DTD SVG 20010904//EN"
 "http://www.w3.org/TR/2001/REC-SVG-20010904/DTD/svg10.dtd">
<svg version="1.0" xmlns="http://www.w3.org/2000/svg"
 width="202.000000pt" height="202.000000pt" viewBox="0 0 202.000000 202.000000"
 preserveAspectRatio="xMidYMid meet">
<metadata>
Created by potrace 1.11, written by Peter Selinger 2001-2013
</metadata>
<g transform="translate(0.000000,202.000000) scale(0.100000,-0.100000)"
fill="#000000" stroke="none">
<path d="M0 1010 l0 -1010 1010 0 1010 0 0 1010 0 1010 -1010 0 -1010 0 0
-1010z m536 365 c70 -21 87 -35 79 -68 l-7 -26 -38 19 c-161 82 -355 17 -324
-109 11 -43 53 -74 132 -96 169 -47 195 -57 230 -90 36 -32 37 -36 37 -103 0
-83 -17 -113 -85 -151 -86 -48 -262 -38 -357 21 -34 20 -39 33 -24 57 7 11 22
7 77 -20 60 -30 78 -34 149 -34 93 0 147 21 170 66 39 74 1 136 -101 164 -161
45 -194 57 -225 78 -117 78 -77 253 69 297 45 14 165 11 218 -5z m344 -290 l0
-305 185 0 185 0 0 -30 0 -30 -215 0 -215 0 0 335 0 335 30 0 30 0 0 -305z
m493 113 c46 -106 104 -237 127 -290 24 -54 46 -98 49 -98 3 0 63 130 132 288
l126 287 33 3 c24 3 31 0 27 -10 -2 -7 -69 -158 -147 -335 l-143 -323 -31 0
-31 0 -124 283 c-68 155 -135 306 -148 335 l-23 52 34 0 34 0 85 -192z"/>
</g>
</svg>
